<svg preserveAspectRatio="none" width="100%" height="100%" overflow="visible" style="display: block;" viewBox="0 0 10.5635 11.9985" fill="none" xmlns="http://www.w3.org/2000/svg">
<g id="Group">
<path id="Vector" d="M10.0635 4.565C10.0635 7.434 6.982 8.39 5.2815 8.39C3.581 8.39 0.5 7.434 0.5 4.565C0.5 1.696 2.465 0.5 5.2815 0.5C8.098 0.5 10.0635 1.696 10.0635 4.565Z" fill="#FF808C"/>
<path id="Vector_2" d="M5.2815 2.6215C7.6805 2.6215 9.4615 3.489 9.937 5.5195C10.0231 5.20804 10.0657 4.88614 10.0635 4.563C10.0635 1.694 8.0985 0.4985 5.2815 0.4985C2.4645 0.4985 0.5 1.6935 0.5 4.563C0.498 4.886 0.5405 5.208 0.626 5.5195C1.1015 3.4885 2.8825 2.6215 5.2815 2.6215Z" fill="#FFBFC5"/>
<path id="Vector_3" d="M7.8715 4.405C7.8715 6.605 6.7115 8.39 5.281 8.39C3.8505 8.39 2.691 6.606 2.691 4.405C2.691 2.204 3.851 0.5 5.281 0.5C6.711 0.5 7.8715 2.205 7.8715 4.405Z" fill="#FFEF5E"/>
<path id="Vector_4" d="M5.2815 2.6215C6.10656 2.6044 6.92792 2.73652 7.706 3.0115C7.337 1.5255 6.3905 0.5005 5.281 0.5005C4.1715 0.5005 3.225 1.5255 2.856 3.012C3.63423 2.73696 4.45577 2.60484 5.281 2.622" fill="#FFF9BF"/>
<path id="Vector_5" d="M5.2815 8.39C6.982 8.39 10.0635 7.434 10.0635 4.565C10.0635 1.696 8.098 0.5 5.2815 0.5C2.465 0.5 0.5 1.696 0.5 4.565C0.5 7.434 3.581 8.39 5.2815 8.39Z" stroke="var(--stroke-0, #191919)" stroke-linecap="round" stroke-linejoin="round"/>
<path id="Vector_6" d="M6.477 10.0635H4.0865V11.4985H6.4775L6.477 10.0635Z" fill="#C77F67" stroke="var(--stroke-0, #191919)" stroke-linecap="round" stroke-linejoin="round"/>
<path id="Vector_7" d="M7.803 7.8235L6.477 10.0635M2.7605 7.8235L4.086 10.0635M3.369 10.0635H7.194M7.8715 4.405C7.8715 6.605 6.7115 8.39 5.281 8.39C3.8505 8.39 2.691 6.606 2.691 4.405C2.691 2.204 3.851 0.5 5.281 0.5C6.711 0.5 7.8715 2.205 7.8715 4.405Z" stroke="var(--stroke-0, #191919)" stroke-linecap="round" stroke-linejoin="round"/>
</g>
</svg>
