<svg preserveAspectRatio="none" width="100%" height="100%" overflow="visible" style="display: block;" viewBox="0 0 12 12" fill="none" xmlns="http://www.w3.org/2000/svg">
<g id="emojione:airplane" clip-path="url(#clip0_0_15)">
<path id="Vector" d="M1.35225 2.391L2.877 0.86625L3.24825 1.2375L1.7235 2.76225L1.35225 2.391ZM4.01644 2.77444L5.54137 1.25006L5.91262 1.62131L4.38769 3.14569L4.01644 2.77444ZM9.24562 10.2851L10.7707 8.76075L11.142 9.13219L9.61687 10.6566L9.24562 10.2851ZM8.86481 7.60444L10.3899 6.08006L10.7612 6.4515L9.23587 7.97587L8.86481 7.60444Z" fill="#ACB8BF"/>
<path id="Vector_2" d="M10.575 11.3812L9.69375 3.4875L8.5125 2.30625L0.61875 1.425C0.24375 1.3875 0.31875 2.325 0.75 2.53125L6.69375 5.30625L9.46875 11.25C9.675 11.6812 10.6125 11.7562 10.575 11.3812Z" fill="#42ADE2"/>
<path id="Vector_3" d="M11.4938 1.51875C11.9063 0.7125 11.2875 0.09375 10.4813 0.50625C9.45 1.03125 7.93125 2.2125 6.39375 3.73125C3.99375 6.13125 2.45625 8.5125 2.9625 9.0375C3.46875 9.54375 5.86875 8.00625 8.26875 5.60625C9.7875 4.0875 10.9688 2.55 11.4938 1.51875Z" fill="#DAE3EA"/>
<path id="Vector_4" d="M4.2 11.2875L3.9 8.5125L3.4875 8.1L0.7125 7.8C0.58125 7.78125 0.6 8.11875 0.75 8.19375L2.83125 9.16875L3.80625 11.25C3.88125 11.4 4.21875 11.4187 4.2 11.2875Z" fill="#42ADE2"/>
<path id="Vector_5" d="M3.7875 8.6625C2.94375 9.50625 2.175 10.0875 2.0625 9.95625C1.95 9.84375 2.53125 9.05625 3.35625 8.2125C4.2 7.36875 4.96875 6.7875 5.1 6.91875C5.19375 7.03125 4.6125 7.81875 3.7875 8.6625Z" fill="#ACB8BF"/>
<path id="Vector_6" d="M11.2125 1.81875C11.3062 1.48125 11.2688 1.1625 11.0625 0.9375C10.8562 0.73125 10.5188 0.675 10.2 0.7875L9.5625 1.18125C9.88125 1.06875 10.35 1.2375 10.5562 1.44375C10.7812 1.66875 10.9313 2.11875 10.8188 2.4375L11.2125 1.81875Z" fill="#3E4347"/>
<path id="Vector_7" d="M10.062 1.81781L11.1221 0.75675L11.2416 0.876L10.1812 1.93725L10.062 1.81781Z" fill="#DAE3EA"/>
</g>
<defs>
<clipPath id="clip0_0_15">
<rect width="12" height="12" fill="white"/>
</clipPath>
</defs>
</svg>
