<svg preserveAspectRatio="none" width="100%" height="100%" overflow="visible" style="display: block;" viewBox="0 0 12 12" fill="none" xmlns="http://www.w3.org/2000/svg">
<g id="twemoji:love-hotel" clip-path="url(#clip0_0_29)">
<path id="Vector" d="M7 5C7 5.35362 6.85952 5.69276 6.60948 5.94281C6.35943 6.19286 6.02029 6.33333 5.66667 6.33333H1.33333C0.979711 6.33333 0.640573 6.19286 0.390524 5.94281C0.140476 5.69276 0 5.35362 0 5V4C0 3.64638 0.140476 3.30724 0.390524 3.05719C0.640573 2.80714 0.979711 2.66667 1.33333 2.66667H5.66667C6.02029 2.66667 6.35943 2.80714 6.60948 3.05719C6.85952 3.30724 7 3.64638 7 4V5Z" fill="#BE1931"/>
<path id="Vector_2" d="M12 2C12 2.35362 11.8595 2.69276 11.6095 2.94281C11.3594 3.19286 11.0203 3.33333 10.6667 3.33333H6.66667C6.31304 3.33333 5.97391 3.19286 5.72386 2.94281C5.47381 2.69276 5.33333 2.35362 5.33333 2V1.66667C5.33333 1.31304 5.47381 0.973906 5.72386 0.723858C5.97391 0.473809 6.31304 0.333333 6.66667 0.333333H10.6667C11.0203 0.333333 11.3594 0.473809 11.6095 0.723858C11.8595 0.973906 12 1.31304 12 1.66667V2Z" fill="#BE1931"/>
<path id="Vector_3" d="M0 4V11.3333C0 11.5101 0.0702379 11.6797 0.195262 11.8047C0.320286 11.9298 0.489856 12 0.666667 12H11V4H0Z" fill="#F4ABBA"/>
<path id="Vector_4" d="M0.666667 10.6667H4.66667V12H0.666667V10.6667ZM0.666667 8.66667H6V10H0.666667V8.66667Z" fill="#3B88C3"/>
<path id="Vector_5" d="M5.33333 1.66667V12H11.3333C11.5101 12 11.6797 11.9298 11.8047 11.8047C11.9298 11.6797 12 11.5101 12 11.3333V1.66667H5.33333Z" fill="#FFD4DE"/>
<path id="Vector_6" d="M6 6.66667H11.3333V8H6V6.66667ZM6 4.66667H11.3333V6H6V4.66667ZM6 2.66667H11.3333V4H6V2.66667ZM6 8.66667H11.3333V10H6V8.66667Z" fill="#55ACEE"/>
<path id="Vector_7" d="M7.33333 2.33333H8V10.3333H7.33333V2.33333ZM9.33333 2.33333H10V10.3333H9.33333V2.33333Z" fill="#FFD4DE"/>
<path id="Vector_8" d="M7.33333 10.6667H10V12H7.33333V10.6667Z" fill="#3B88C3"/>
<path id="Vector_9" d="M3.33333 4.66667V6H2V4.66667H1.33333V8H2V6.66667H3.33333V8H4V4.66667H3.33333Z" fill="#DD2E44"/>
<path id="Vector_10" d="M2.33333 8.33333H3V10.3333H2.33333V8.33333ZM4.66667 8.33333H5.33333V10.3333H4.66667V8.33333Z" fill="#F4ABBA"/>
<path id="Vector_11" d="M1 1C1 0.0796667 2.321 -0.333333 2.66667 1C3.04067 -0.333333 4.33333 0.0796667 4.33333 1C4.33333 2 2.66667 3 2.66667 3C2.66667 3 1 2 1 1Z" fill="#EA596E"/>
</g>
<defs>
<clipPath id="clip0_0_29">
<rect width="12" height="12" fill="white"/>
</clipPath>
</defs>
</svg>
