<svg preserveAspectRatio="none" width="100%" height="100%" overflow="visible" style="display: block;" viewBox="0 0 12 12" fill="none" xmlns="http://www.w3.org/2000/svg">
<g id="twemoji:camping" clip-path="url(#clip0_0_51)">
<path id="Vector" d="M6 8.39333C1.146 8.39333 0 9.948 0 10.6667C0 11.3853 0.597 12 1.33333 12H10.6667C11.403 12 12 11.383 12 10.6667C12 9.95033 10.854 8.39333 6 8.39333Z" fill="#78B159"/>
<path id="Vector_2" d="M9.60133 9.38333C9.60133 9.89367 9.18733 10.0767 8.677 10.0767C8.16667 10.0767 7.75267 9.894 7.75267 9.38333L7.98367 7.30367C7.98367 6.79333 8.16633 6.84133 8.677 6.84133C9.18733 6.84133 9.37033 6.793 9.37033 7.30367L9.60133 9.38333Z" fill="#662113"/>
<path id="Vector_3" d="M11.6227 6.57233C10.0927 5.194 9.473 3.22033 8.677 3.22033C7.881 3.22033 7.26133 5.194 5.73167 6.57233C5.08867 7.15167 5.395 7.48667 6.27633 7.41967C7.062 7.36 7.79667 7.17267 8.677 7.17267C9.55733 7.17267 10.2923 7.36033 11.0777 7.41967C11.959 7.48667 12.2653 7.15133 11.6227 6.57233Z" fill="#5C913B"/>
<path id="Vector_4" d="M11.1257 6.026C9.95 4.89233 9.28933 3.26833 8.677 3.26833C8.06467 3.26833 7.40433 4.89233 6.22867 6.026C5.29433 6.927 7.453 7.129 8.677 6.026C9.90067 7.129 12.0597 6.927 11.1257 6.026Z" fill="#3E721D"/>
<path id="Vector_5" d="M11.1257 5.10767C9.95 4.04833 9.28933 2.53133 8.677 2.53133C8.06467 2.53133 7.40433 4.04833 6.22867 5.10767C5.29433 5.94933 7.453 6.138 8.677 5.10767C9.90067 6.138 12.0597 5.949 11.1257 5.10767Z" fill="#5C913B"/>
<path id="Vector_6" d="M10.5887 4.35533C9.671 3.52833 9.155 2.344 8.677 2.344C8.19933 2.344 7.68333 3.52833 6.76533 4.35533C6.036 5.01233 7.721 5.16 8.677 4.35533C9.63267 5.15967 11.318 5.01233 10.5887 4.35533Z" fill="#3E721D"/>
<path id="Vector_7" d="M10.5887 3.667C9.671 2.84 9.155 1.65567 8.677 1.65567C8.19933 1.65567 7.68333 2.84 6.76533 3.667C6.036 4.324 7.721 4.47167 8.677 3.667C9.63267 4.47167 11.318 4.32433 10.5887 3.667Z" fill="#5C913B"/>
<path id="Vector_8" d="M10.2197 3.056C9.479 2.38867 9.06267 1.433 8.677 1.433C8.29133 1.433 7.875 2.38867 7.13433 3.056C6.54567 3.58633 7.90567 3.70533 8.677 3.056C9.44833 3.70533 10.8087 3.58633 10.2197 3.056Z" fill="#3E721D"/>
<path id="Vector_9" d="M10.2197 2.538C9.479 1.87067 9.06267 0.915 8.677 0.915C8.29133 0.915 7.875 1.87067 7.13433 2.538C6.54567 3.06833 7.90567 3.18733 8.677 2.538C9.44833 3.18733 10.8087 3.06833 10.2197 2.538Z" fill="#5C913B"/>
<path id="Vector_10" d="M9.851 1.77533C9.28767 1.26767 8.97067 0.540333 8.677 0.540333C8.38333 0.540333 8.06667 1.26767 7.503 1.77533C7.055 2.179 8.09 2.26933 8.677 1.77533C9.264 2.26967 10.299 2.179 9.851 1.77533Z" fill="#3E721D"/>
<path id="Vector_11" d="M9.851 1.43C9.28767 0.922333 8.97067 0.195 8.677 0.195C8.38333 0.195 8.06667 0.922333 7.503 1.43C7.055 1.83367 8.09 1.924 8.677 1.43C9.264 1.924 10.299 1.83367 9.851 1.43Z" fill="#5C913B"/>
<path id="Vector_12" d="M5.03367 11C4.89233 11 4.76633 10.911 4.719 10.778L3.04833 6.10033C3.0302 6.05096 3.02451 5.99788 3.03178 5.94578C3.03905 5.89369 3.05904 5.84419 3.09 5.80167C3.12135 5.75884 3.16256 5.72421 3.21014 5.70071C3.25773 5.67721 3.31028 5.66553 3.36333 5.66667H7.283C7.41667 5.66667 7.53767 5.74 7.59033 5.863L9.595 10.5373C9.61688 10.588 9.62576 10.6434 9.62082 10.6983C9.61588 10.7533 9.59728 10.8062 9.56671 10.8522C9.53615 10.8981 9.49458 10.9357 9.44579 10.9615C9.397 10.9874 9.34253 11.0006 9.28733 11H5.03367Z" fill="#F4900C"/>
<path id="Vector_13" d="M1.35833 11C1.3031 10.9998 1.24877 10.9859 1.2002 10.9596C1.15162 10.9333 1.1103 10.8954 1.07991 10.8493C1.04952 10.8032 1.03101 10.7502 1.02602 10.6952C1.02104 10.6402 1.02973 10.5848 1.05133 10.534L3.05733 5.85333C3.08303 5.79315 3.12584 5.74184 3.18045 5.70578C3.23506 5.66972 3.29906 5.6505 3.3645 5.6505C3.42994 5.6505 3.49394 5.66972 3.54855 5.70578C3.60316 5.74184 3.64597 5.79315 3.67167 5.85333L5.67767 10.5337C5.69926 10.5846 5.70794 10.64 5.70294 10.695C5.69793 10.7501 5.67939 10.803 5.64898 10.8492C5.61856 10.8954 5.5772 10.9333 5.52859 10.9596C5.47997 10.9859 5.42561 10.9998 5.37033 11H1.35833Z" fill="#FFCC4D"/>
<path id="Vector_14" d="M3.36333 6.47867L2.69467 11H4.03133L3.36333 6.47867Z" fill="#292F33"/>
<path id="Vector_15" d="M4.709 10.629L4.85833 11H4.03133L4.709 10.629ZM2.01733 10.629L1.868 11H2.69467L2.01733 10.629Z" fill="#FFAC33"/>
<path id="Vector_16" d="M4.03133 11C4.03133 11 4.639 10.845 4.936 10.5707L3.36333 6.47867L4.03133 11ZM2.69467 11C2.69467 11 2.087 10.845 1.79 10.5707L3.363 6.47833L2.69467 11Z" fill="#FFE8B6"/>
<path id="Vector_17" d="M4.54167 1.875C4.53567 1.875 4.53033 1.877 4.52433 1.877C4.53589 1.82233 4.54167 1.766 4.54167 1.708C4.54167 1.48699 4.45387 1.27502 4.29759 1.11874C4.14131 0.962464 3.92935 0.874667 3.70833 0.874667C3.56762 0.874777 3.42925 0.910658 3.30622 0.978937C3.18319 1.04722 3.07954 1.14565 3.005 1.265C2.91039 1.2282 2.80985 1.20899 2.70833 1.20833C2.50569 1.20857 2.31012 1.28293 2.15852 1.4174C2.00692 1.55187 1.90975 1.73716 1.88533 1.93833C1.78973 1.89782 1.68716 1.87631 1.58333 1.875C1.4739 1.875 1.36554 1.89655 1.26443 1.93843C1.16333 1.98031 1.07146 2.0417 0.994078 2.11908C0.916696 2.19646 0.855313 2.28833 0.813434 2.38943C0.771555 2.49054 0.75 2.5989 0.75 2.70833C0.75 2.81777 0.771555 2.92613 0.813434 3.02724C0.855313 3.12834 0.916696 3.22021 0.994078 3.29759C1.07146 3.37497 1.16333 3.43635 1.26443 3.47823C1.36554 3.52011 1.4739 3.54167 1.58333 3.54167H4.54167C4.76268 3.54167 4.97464 3.45387 5.13092 3.29759C5.2872 3.14131 5.375 2.92935 5.375 2.70833C5.375 2.48732 5.2872 2.27536 5.13092 2.11908C4.97464 1.9628 4.76268 1.875 4.54167 1.875Z" fill="#E1E8ED"/>
</g>
<defs>
<clipPath id="clip0_0_51">
<rect width="12" height="12" fill="white"/>
</clipPath>
</defs>
</svg>
