<svg width="16" height="16" viewBox="0 0 16 16" fill="none" xmlns="http://www.w3.org/2000/svg">
<rect width="16" height="16" fill="white" fill-opacity="0.01"/>
<path fill-rule="evenodd" clip-rule="evenodd" d="M2.61667 3C2.13802 3 1.75 3.40702 1.75 3.90909V12.0909C1.75 12.593 2.13802 13 2.61667 13H13.8833C14.362 13 14.75 12.593 14.75 12.0909V3.90909C14.75 3.40702 14.362 3 13.8833 3H2.61667ZM2.61667 3.90909H13.8833V4.74995C13.8117 4.74987 13.7393 4.77046 13.6744 4.81368L8.25 8.42457L2.82564 4.81368C2.76072 4.77046 2.68825 4.74987 2.61667 4.74995V3.90909ZM2.61667 5.64361V12.0909H13.8833V5.64361L8.45897 9.2545C8.33141 9.33941 8.16859 9.33941 8.04103 9.2545L2.61667 5.64361Z" fill="#E54D2E"/>
</svg>
