<svg width="25" height="25" viewBox="0 0 25 25" fill="none" xmlns="http://www.w3.org/2000/svg">
<rect width="25" height="25" fill="white" fill-opacity="0.01"/>
<path fill-rule="evenodd" clip-rule="evenodd" d="M6.07746 18.9227C5.75201 18.5972 5.75201 18.0695 6.07746 17.7442L17.1549 6.66667H10C9.53981 6.66667 9.16671 6.29357 9.16671 5.83333C9.16671 5.3731 9.53981 5 10 5H19.1667C19.3877 5 19.5997 5.0878 19.756 5.24408C19.9122 5.40037 20 5.61232 20 5.83333V15C20 15.4602 19.6269 15.8334 19.1667 15.8334C18.7065 15.8334 18.3334 15.4602 18.3334 15V7.84518L7.25596 18.9227C6.93053 19.248 6.40289 19.248 6.07746 18.9227Z" fill="#EC8E7B"/>
</svg>
