<svg width="18" height="18" viewBox="0 0 18 18" fill="none" xmlns="http://www.w3.org/2000/svg">
<rect width="18" height="18" fill="white" fill-opacity="0.01"/>
<path fill-rule="evenodd" clip-rule="evenodd" d="M10.3215 1.50107C10.3215 2.10554 9.91531 2.61516 9.36102 2.7719C12.1751 2.95768 14.4 5.29902 14.4 8.16003V12.3C14.4 13.2676 14.4395 14.0489 15.2683 14.4634C15.5172 14.5878 15.6479 14.8671 15.5839 15.1379C15.5199 15.4088 15.2783 15.6 15 15.6H9.7937C10.0428 15.8199 10.1999 16.1416 10.1999 16.5C10.1999 17.1628 9.66269 17.7 8.99994 17.7C8.3372 17.7 7.79994 17.1628 7.79994 16.5C7.79994 16.1416 7.95707 15.8199 8.20619 15.6H2.99996C2.7217 15.6 2.47994 15.4088 2.41601 15.1379C2.35208 14.8671 2.48274 14.5878 2.73163 14.4634C3.56047 14.0489 3.59996 13.2676 3.59996 12.3V8.16003C3.59996 5.29848 5.82575 2.95679 8.64048 2.7718C8.08638 2.61493 7.68041 2.10541 7.68041 1.50107C7.68041 0.771762 8.27162 0.180542 9.00094 0.180542C9.73024 0.180542 10.3215 0.771762 10.3215 1.50107ZM8.99996 3.96003C6.68036 3.96003 4.79996 5.84043 4.79996 8.16003V12.3L4.8 12.3611C4.80058 12.8956 4.80143 13.6901 4.43912 14.4H13.5608C13.1985 13.6901 13.1994 12.8956 13.2 12.3611V12.3V8.16003C13.2 5.84043 11.3196 3.96003 8.99996 3.96003Z" fill="#CD2200" fill-opacity="0.917647"/>
</svg>
