<svg width="20" height="20" viewBox="0 0 20 20" fill="none" xmlns="http://www.w3.org/2000/svg">
<path d="M4.16659 3H19.1666V13H4.16659V3ZM11.6666 5.5C12.3296 5.5 12.9655 5.76339 13.4344 6.23223C13.9032 6.70107 14.1666 7.33696 14.1666 8C14.1666 8.66304 13.9032 9.29893 13.4344 9.76777C12.9655 10.2366 12.3296 10.5 11.6666 10.5C11.0035 10.5 10.3677 10.2366 9.89882 9.76777C9.42998 9.29893 9.16659 8.66304 9.16659 8C9.16659 7.33696 9.42998 6.70107 9.89882 6.23223C10.3677 5.76339 11.0035 5.5 11.6666 5.5ZM7.49992 4.66667C7.49992 5.10869 7.32432 5.53262 7.01176 5.84518C6.6992 6.15774 6.27528 6.33333 5.83325 6.33333V9.66667C6.27528 9.66667 6.6992 9.84226 7.01176 10.1548C7.32432 10.4674 7.49992 10.8913 7.49992 11.3333H15.8333C15.8333 10.8913 16.0088 10.4674 16.3214 10.1548C16.634 9.84226 17.0579 9.66667 17.4999 9.66667V6.33333C17.0579 6.33333 16.634 6.15774 16.3214 5.84518C16.0088 5.53262 15.8333 5.10869 15.8333 4.66667H7.49992ZM0.833252 6.33333H2.49992V14.6667H15.8333V16.3333H0.833252V6.33333Z" fill="white"/>
</svg>
