<svg width="10" height="10" viewBox="0 0 10 10" fill="none" xmlns="http://www.w3.org/2000/svg">
<rect width="10" height="10" fill="white" fill-opacity="0.01"/>
<path fill-rule="evenodd" clip-rule="evenodd" d="M3.26233 1.56828C2.32799 1.56828 1.56834 2.32902 1.56834 3.27017C1.56834 4.25438 2.13971 5.27782 2.91505 6.22344C3.59599 7.05396 4.39645 7.78009 5.00003 8.31849C5.60362 7.78009 6.40407 7.05396 7.08502 6.22344C7.86035 5.27782 8.43175 4.25438 8.43175 3.27017C8.43175 2.32902 7.67209 1.56828 6.73775 1.56828C6.18041 1.56828 5.87931 1.76211 5.69315 1.97224C5.5192 2.16859 5.43084 2.3904 5.35003 2.59324C5.33596 2.62856 5.32212 2.6633 5.30809 2.69723C5.25657 2.82192 5.13495 2.90325 5.00003 2.90325C4.86512 2.90325 4.74351 2.82192 4.69197 2.69724C4.67795 2.6633 4.6641 2.62855 4.65003 2.59322C4.56922 2.39038 4.48086 2.16858 4.30691 1.97224C4.12075 1.76211 3.81965 1.56828 3.26233 1.56828ZM0.901672 3.27017C0.901672 1.96328 1.95735 0.901611 3.26233 0.901611C4.00562 0.901611 4.49005 1.17362 4.80591 1.53016C4.88043 1.61427 4.94459 1.7025 5.00003 1.79026C5.05547 1.7025 5.11963 1.61427 5.19415 1.53016C5.51002 1.17362 5.99445 0.901611 6.73775 0.901611C8.04269 0.901611 9.09842 1.96328 9.09842 3.27017C9.09842 4.49356 8.40089 5.67001 7.60055 6.64614C6.84242 7.57076 5.94798 8.36716 5.33736 8.91089C5.29765 8.94622 5.25915 8.98056 5.22196 9.01369C5.09551 9.12656 4.90455 9.12656 4.77811 9.01369C4.74092 8.98056 4.70241 8.94622 4.66271 8.91089C4.05209 8.36716 3.15763 7.57076 2.39953 6.64614C1.59917 5.67001 0.901672 4.49356 0.901672 3.27017Z" fill="#CD2200" fill-opacity="0.917647"/>
</svg>
