<svg width="16" height="16" viewBox="0 0 16 16" fill="none" xmlns="http://www.w3.org/2000/svg">
<rect width="16" height="16" fill="white" fill-opacity="0.01"/>
<path fill-rule="evenodd" clip-rule="evenodd" d="M1.44266 5.23232C1.44266 3.14129 3.13175 1.44263 5.2197 1.44263C6.67488 1.44263 7.31796 2.05157 8.00003 3.13113C8.6821 2.05157 9.32518 1.44263 10.7804 1.44263C12.8683 1.44263 14.5575 3.14129 14.5575 5.23232C14.5575 7.18975 13.4414 9.07207 12.1609 10.6339C10.9479 12.1133 9.51675 13.3875 8.53976 14.2575C8.47623 14.314 8.41461 14.3689 8.35512 14.422C8.1528 14.6025 7.84727 14.6025 7.64495 14.422C7.58545 14.3689 7.52384 14.314 7.46031 14.2575C6.48332 13.3875 5.05218 12.1133 3.83922 10.6339C2.55865 9.07207 1.44266 7.18975 1.44266 5.23232Z" fill="#E54D2E"/>
</svg>
