<svg width="18" height="18" viewBox="0 0 18 18" fill="none" xmlns="http://www.w3.org/2000/svg">
<rect width="18" height="18" fill="white" fill-opacity="0.01"/>
<path fill-rule="evenodd" clip-rule="evenodd" d="M1.2 2.3999C0.537258 2.3999 0 2.93717 0 3.5999V14.3999C0 15.0627 0.537258 15.5999 1.2 15.5999H16.8C17.4628 15.5999 18 15.0627 18 14.3999V3.5999C18 2.93717 17.4628 2.3999 16.8 2.3999H1.2ZM1.2 3.5999H16.8V4.70983C16.7009 4.70973 16.6006 4.73691 16.5107 4.79396L9 9.56034L1.48934 4.79396C1.39945 4.73691 1.29912 4.70973 1.2 4.70983V3.5999ZM1.2 5.88947V14.3999H16.8V5.88947L9.28934 10.6558C9.11273 10.7679 8.88727 10.7679 8.71066 10.6558L1.2 5.88947Z" fill="#CD2200" fill-opacity="0.917647"/>
</svg>
