<svg width="18" height="18" viewBox="0 0 18 18" fill="none" xmlns="http://www.w3.org/2000/svg">
<rect width="18" height="18" fill="white" fill-opacity="0.01"/>
<path fill-rule="evenodd" clip-rule="evenodd" d="M4.79998 2.99995C4.79998 2.66858 5.06861 2.39995 5.39998 2.39995H12.6C12.9313 2.39995 13.2 2.66858 13.2 2.99995V15C13.2 15.3313 12.9313 15.6 12.6 15.6H5.39998C5.06861 15.6 4.79998 15.3313 4.79998 15V2.99995ZM5.39998 1.19995C4.40586 1.19995 3.59998 2.00584 3.59998 2.99995V15C3.59998 15.994 4.40586 16.8 5.39998 16.8H12.6C13.5941 16.8 14.4 15.994 14.4 15V2.99995C14.4 2.00584 13.5941 1.19995 12.6 1.19995H5.39998ZM7.19998 13.98C6.96802 13.98 6.77998 14.168 6.77998 14.4C6.77998 14.6319 6.96802 14.82 7.19998 14.82H10.8C11.0319 14.82 11.22 14.6319 11.22 14.4C11.22 14.168 11.0319 13.98 10.8 13.98H7.19998Z" fill="#CD2200" fill-opacity="0.917647"/>
</svg>
