<svg width="16" height="16" viewBox="0 0 16 16" fill="none" xmlns="http://www.w3.org/2000/svg">
<path fill-rule="evenodd" clip-rule="evenodd" d="M0 7.9474C0 3.55817 3.55817 0 7.9474 0C12.3366 0 15.8948 3.55817 15.8948 7.9474C15.8948 12.3365 12.3366 15.8948 7.9474 15.8948C3.55817 15.8948 0 12.3365 0 7.9474ZM7.9474 1.13999C4.18778 1.13999 1.14 4.18778 1.14 7.9474C1.14 9.7139 1.81287 11.3233 2.91631 12.5331C3.97647 10.877 5.8334 9.77753 7.94786 9.77753C10.0621 9.77753 11.9187 10.8767 12.9791 12.5325C14.0821 11.3228 14.7548 9.71361 14.7548 7.9474C14.7548 4.18778 11.7069 1.13999 7.9474 1.13999ZM12.1257 13.322C11.2883 11.8829 9.73042 10.9175 7.94786 10.9175C6.16508 10.9175 4.60707 11.8832 3.76972 13.3225C4.92301 14.2202 6.37276 14.7548 7.9474 14.7548C9.52231 14.7548 10.9723 14.2199 12.1257 13.322ZM5.12757 6.75339C5.12757 5.19595 6.39013 3.93339 7.94757 3.93339C9.50502 3.93339 10.7676 5.19595 10.7676 6.75339C10.7676 8.31083 9.50502 9.57339 7.94757 9.57339C6.39013 9.57339 5.12757 8.31083 5.12757 6.75339ZM7.94757 5.07339C7.01973 5.07339 6.26757 5.82555 6.26757 6.75339C6.26757 7.68123 7.01973 8.43339 7.94757 8.43339C8.87541 8.43339 9.62757 7.68123 9.62757 6.75339C9.62757 5.82555 8.87541 5.07339 7.94757 5.07339Z" fill="#E54D2E"/>
</svg>
