<svg width="18" height="11" viewBox="0 0 18 11" fill="none" xmlns="http://www.w3.org/2000/svg">
<path fill-rule="evenodd" clip-rule="evenodd" d="M16.8 9.60005V1.2H1.2V9.60005H16.8ZM18 1.2V9.60005C18 10.2627 17.4628 10.8 16.8 10.8H1.2C0.537258 10.8 0 10.2627 0 9.60005V1.2C0 0.537264 0.537258 0 1.2 0H16.8C17.4628 0 18 0.537264 18 1.2ZM2.4 2.69993C2.4 2.53424 2.53432 2.39993 2.7 2.39993H6.9C7.06568 2.39993 7.2 2.53424 7.2 2.69993V8.09993C7.2 8.26561 7.06568 8.39993 6.9 8.39993H2.7C2.53432 8.39993 2.4 8.26561 2.4 8.09993V2.69993ZM9 4.79993C8.66863 4.79993 8.4 5.06856 8.4 5.39993C8.4 5.7313 8.66863 5.99993 9 5.99993H12.6C12.9313 5.99993 13.2 5.7313 13.2 5.39993C13.2 5.06856 12.9313 4.79993 12.6 4.79993H9ZM8.4 7.79993C8.4 7.46856 8.66863 7.19993 9 7.19993H15C15.3313 7.19993 15.6 7.46856 15.6 7.79993C15.6 8.1313 15.3313 8.39993 15 8.39993H9C8.66863 8.39993 8.4 8.1313 8.4 7.79993ZM9 2.39993C8.66863 2.39993 8.4 2.66856 8.4 2.99993C8.4 3.3313 8.66863 3.59993 9 3.59993H13.8C14.1313 3.59993 14.4 3.3313 14.4 2.99993C14.4 2.66856 14.1313 2.39993 13.8 2.39993H9Z" fill="currentColor"/>
</svg>
