<svg width="20" height="20" viewBox="0 0 20 20" fill="none" xmlns="http://www.w3.org/2000/svg">
<path d="M10.8333 7.08337H9.16663V5.41671H10.8333V7.08337ZM10.8333 10.8334H9.16663V9.16671H10.8333V10.8334ZM10.8333 14.5834H9.16663V12.9167H10.8333V14.5834ZM18.3333 8.33337V5.00004C18.3333 4.07504 17.5833 3.33337 16.6666 3.33337H3.33329C2.89127 3.33337 2.46734 3.50897 2.15478 3.82153C1.84222 4.13409 1.66663 4.55801 1.66663 5.00004V8.33337C2.59163 8.33337 3.33329 9.08337 3.33329 10C3.33329 10.4421 3.1577 10.866 2.84514 11.1786C2.53258 11.4911 2.10865 11.6667 1.66663 11.6667V15C1.66663 15.4421 1.84222 15.866 2.15478 16.1786C2.46734 16.4911 2.89127 16.6667 3.33329 16.6667H16.6666C17.1087 16.6667 17.5326 16.4911 17.8451 16.1786C18.1577 15.866 18.3333 15.4421 18.3333 15V11.6667C17.8913 11.6667 17.4673 11.4911 17.1548 11.1786C16.8422 10.866 16.6666 10.4421 16.6666 10C16.6666 9.55801 16.8422 9.13409 17.1548 8.82153C17.4673 8.50897 17.8913 8.33337 18.3333 8.33337Z" fill="#E54D2E"/>
</svg>
