<svg width="20" height="20" viewBox="0 0 20 20" fill="none" xmlns="http://www.w3.org/2000/svg">
<path d="M15.7 9.21592H17.2V10.9119H15.7C14.665 10.9119 13.645 10.6151 12.7 10.0639C10.825 11.1663 8.57495 11.1663 6.69995 10.0639C5.75495 10.6151 4.72745 10.9119 3.69995 10.9119H2.19995V9.21592H3.69995C4.74245 9.21592 5.78495 8.81735 6.69995 8.08806C8.52995 9.53816 10.87 9.53816 12.7 8.08806C13.615 8.81735 14.6575 9.21592 15.7 9.21592ZM15.7 4.12785H17.2V5.82387H15.7C14.665 5.82387 13.645 5.52707 12.7 4.97586C10.825 6.07828 8.57495 6.07828 6.69995 4.97586C5.75495 5.52707 4.72745 5.82387 3.69995 5.82387H2.19995V4.12785H3.69995C4.74245 4.12785 5.78495 3.72929 6.69995 3C8.52995 4.4501 10.87 4.4501 12.7 3C13.615 3.72929 14.6575 4.12785 15.7 4.12785ZM15.7 14.304H17.2V16H15.7C14.665 16 13.645 15.7032 12.7 15.152C10.825 16.2544 8.57495 16.2544 6.69995 15.152C5.75495 15.7032 4.72745 16 3.69995 16H2.19995V14.304H3.69995C4.74245 14.304 5.78495 13.9054 6.69995 13.1761C8.52995 14.6262 10.87 14.6262 12.7 13.1761C13.615 13.9054 14.6575 14.304 15.7 14.304Z" fill="#E54D2E"/>
</svg>
