<svg preserveAspectRatio="none" width="100%" height="100%" overflow="visible" style="display: block;" viewBox="0 0 18 18" fill="none" xmlns="http://www.w3.org/2000/svg">
<g id="office-building-marker">
<path id="Vector" d="M11.3925 15.75C10.59 14.5725 9.75 13.02 9.75 11.625C9.75 10.2525 10.47 9 11.55 8.25H11.25V6.75H12.75V7.6725C13.125 7.5675 13.5 7.5 13.875 7.5C14.0025 7.5 14.13 7.5 14.25 7.5225V2.25H3.75V15.75H8.25V13.125H9.75V15.75H11.3925ZM11.25 3.75H12.75V5.25H11.25V3.75ZM6.75 14.25H5.25V12.75H6.75V14.25ZM6.75 11.25H5.25V9.75H6.75V11.25ZM6.75 8.25H5.25V6.75H6.75V8.25ZM6.75 5.25H5.25V3.75H6.75V5.25ZM8.25 3.75H9.75V5.25H8.25V3.75ZM8.25 6.75H9.75V8.25H8.25V6.75ZM8.25 11.25V9.75H9.75V11.25H8.25ZM13.875 9C12.45 9 11.25 10.2075 11.25 11.625C11.25 13.5825 13.875 16.5 13.875 16.5C13.875 16.5 16.5 13.5825 16.5 11.625C16.5 10.2075 15.3 9 13.875 9ZM13.875 12.6075C13.35 12.6075 12.975 12.1575 12.975 11.7075C12.975 11.1825 13.425 10.8075 13.875 10.8075C14.325 10.8075 14.775 11.25 14.775 11.7075C14.85 12.1575 14.4 12.6075 13.875 12.6075Z" fill="var(--fill-0, white)"/>
</g>
</svg>
