<svg preserveAspectRatio="none" width="100%" height="100%" overflow="visible" style="display: block;" viewBox="0 0 282 83.8627" fill="none" xmlns="http://www.w3.org/2000/svg">
<g id="Rectangle 2" filter="url(#filter0_d_0_115)">
<path d="M25 22.0019C25 21.1534 25.9903 20.6905 26.6413 21.2347L35.1789 28.3711C36.618 29.574 38.434 30.2331 40.3096 30.2331H249C253.418 30.2331 257 33.8148 257 38.2331V46.8627C257 51.281 253.418 54.8627 249 54.8627H33C28.5817 54.8627 25 51.281 25 46.8627V22.0019Z" fill="var(--fill-0, white)" fill-opacity="0.15" shape-rendering="crispEdges"/>
<path d="M25.5 22.0023C25.5 21.5781 25.9948 21.3465 26.3203 21.6185L34.8584 28.7543C36.3874 30.0324 38.3167 30.7328 40.3096 30.7328H249C253.142 30.7328 256.5 34.0908 256.5 38.2328V46.8627C256.5 51.0048 253.142 54.3627 249 54.3627H33C28.8579 54.3627 25.5 51.0048 25.5 46.8627V22.0023Z" stroke="var(--stroke-0, white)" stroke-opacity="0.2" shape-rendering="crispEdges"/>
</g>
<defs>
<filter id="filter0_d_0_115" x="0" y="-5.96046e-07" width="282" height="83.8627" filterUnits="userSpaceOnUse" color-interpolation-filters="sRGB">
<feFlood flood-opacity="0" result="BackgroundImageFix"/>
<feColorMatrix in="SourceAlpha" type="matrix" values="0 0 0 0 0 0 0 0 0 0 0 0 0 0 0 0 0 0 127 0" result="hardAlpha"/>
<feOffset dy="4"/>
<feGaussianBlur stdDeviation="12.5"/>
<feComposite in2="hardAlpha" operator="out"/>
<feColorMatrix type="matrix" values="0 0 0 0 0 0 0 0 0 0 0 0 0 0 0 0 0 0 0.05 0"/>
<feBlend mode="normal" in2="BackgroundImageFix" result="effect1_dropShadow_0_115"/>
<feBlend mode="normal" in="SourceGraphic" in2="effect1_dropShadow_0_115" result="shape"/>
</filter>
</defs>
</svg>
