<svg width="282" height="84" viewBox="0 0 282 84" fill="none" xmlns="http://www.w3.org/2000/svg">
<path d="M25 22.0019C25 21.1534 25.9903 20.6905 26.6413 21.2347L35.1789 28.3711C36.618 29.574 38.434 30.2331 40.3096 30.2331H249C253.418 30.2331 257 33.8148 257 38.2331V46.8627C257 51.281 253.418 54.8627 249 54.8627H33C28.5817 54.8627 25 51.281 25 46.8627V22.0019Z" fill="#FFFFFF" fill-opacity="0.15"/>
<path d="M25.5 22.0023C25.5 21.5781 25.9948 21.3465 26.3203 21.6185L34.8584 28.7543C36.3874 30.0324 38.3167 30.7328 40.3096 30.7328H249C253.142 30.7328 256.5 34.0908 256.5 38.2328V46.8627C256.5 51.0048 253.142 54.3627 249 54.3627H33C28.8579 54.3627 25.5 51.0048 25.5 46.8627V22.0023Z" stroke="#FFFFFF" stroke-opacity="0.2"/>
</svg>
