<svg width="18" height="18" viewBox="0 0 18 18" fill="none" xmlns="http://www.w3.org/2000/svg">
<path d="M10.3925 15.75C9.59 14.5725 8.75 13.02 8.75 11.625C8.75 10.2525 9.47 9 10.55 8.25H10.25V6.75H11.75V7.6725C12.125 7.5675 12.5 7.5 12.875 7.5C13.0025 7.5 13.13 7.5 13.25 7.5225V2.25H2.75V15.75H7.25V13.125H8.75V15.75H10.3925ZM10.25 3.75H11.75V5.25H10.25V3.75ZM5.75 14.25H4.25V12.75H5.75V14.25ZM5.75 11.25H4.25V9.75H5.75V11.25ZM5.75 8.25H4.25V6.75H5.75V8.25ZM5.75 5.25H4.25V3.75H5.75V5.25ZM7.25 3.75H8.75V5.25H7.25V3.75ZM7.25 6.75H8.75V8.25H7.25V6.75ZM7.25 11.25V9.75H8.75V11.25H7.25ZM12.875 9C11.45 9 10.25 10.2075 10.25 11.625C10.25 13.5825 12.875 16.5 12.875 16.5C12.875 16.5 15.5 13.5825 15.5 11.625C15.5 10.2075 14.3 9 12.875 9ZM12.875 12.6075C12.35 12.6075 11.975 12.1575 11.975 11.7075C11.975 11.1825 12.425 10.8075 12.875 10.8075C13.325 10.8075 13.775 11.25 13.775 11.7075C13.85 12.1575 13.4 12.6075 12.875 12.6075Z" fill="#E54D2E"/>
</svg>
