<svg width="15" height="17" viewBox="0 0 15 17" fill="none" xmlns="http://www.w3.org/2000/svg">
<path d="M9 9H10.125V11.115L11.955 12.1725L11.3925 13.1475L9 11.7675V9ZM12 5.25H1.5V13.5H5.0025C4.68 12.8175 4.5 12.0525 4.5 11.25C4.5 9.85761 5.05312 8.52226 6.03769 7.53769C7.02226 6.55312 8.35761 6 9.75 6C10.5525 6 11.3175 6.18 12 6.5025V5.25ZM1.5 15C0.6675 15 0 14.325 0 13.5V3C0 2.1675 0.6675 1.5 1.5 1.5H2.25V0H3.75V1.5H9.75V0H11.25V1.5H12C12.3978 1.5 12.7794 1.65804 13.0607 1.93934C13.342 2.22064 13.5 2.60218 13.5 3V7.575C14.43 8.52 15 9.8175 15 11.25C15 12.6424 14.4469 13.9777 13.4623 14.9623C12.4777 15.9469 11.1424 16.5 9.75 16.5C8.3175 16.5 7.02 15.93 6.075 15H1.5ZM9.75 7.6125C8.78528 7.6125 7.86006 7.99574 7.1779 8.6779C6.49574 9.36006 6.1125 10.2853 6.1125 11.25C6.1125 13.26 7.74 14.8875 9.75 14.8875C10.2277 14.8875 10.7007 14.7934 11.142 14.6106C11.5833 14.4278 11.9843 14.1599 12.3221 13.8221C12.6599 13.4843 12.9278 13.0833 13.1106 12.642C13.2934 12.2007 13.3875 11.7277 13.3875 11.25C13.3875 9.24 11.76 7.6125 9.75 7.6125Z" fill="#E54D2E"/>
</svg>
