<svg width="24" height="24" viewBox="0 0 24 24" fill="none" xmlns="http://www.w3.org/2000/svg">
<path fill-rule="evenodd" clip-rule="evenodd" d="M16 10.4002C16 13.493 13.4928 16.0002 10.4 16.0002C7.30721 16.0002 4.80001 13.493 4.80001 10.4002C4.80001 7.3074 7.30721 4.8002 10.4 4.8002C13.4928 4.8002 16 7.3074 16 10.4002ZM14.8942 16.0256C13.6624 17.0111 12.1 17.6002 10.4 17.6002C6.42356 17.6002 3.20001 14.3766 3.20001 10.4002C3.20001 6.42375 6.42356 3.2002 10.4 3.2002C14.3765 3.2002 17.6 6.42375 17.6 10.4002C17.6 12.1002 17.0109 13.6626 16.0255 14.8943L20.5658 19.4344C20.8781 19.7469 20.8781 20.2535 20.5658 20.566C20.2533 20.8783 19.7467 20.8783 19.4343 20.566L14.8942 16.0256Z" fill="white"/>
</svg>
